<?xml version="1.0" encoding="utf-8"?>
<!-- Generator: Adobe Illustrator 23.0.1, SVG Export Plug-In . SVG Version: 6.00 Build 0)  -->
<svg version="1.1" id="BoardwalkInsurance" xmlns="http://www.w3.org/2000/svg" xmlns:xlink="http://www.w3.org/1999/xlink" x="0px"
	 y="0px" viewBox="0 0 512 512" style="enable-background:new 0 0 512 512;" xml:space="preserve">
<g id="Logo">
	<path d="M319.5,310.5c0-61.4,0-121.5,0-182c-42.5,0-84.5,0-127.1,0c0,21.8,0,43.2,0,64.9c-5.3,0-10,0-15,0c0-26.7,0-53.1,0-80
		c52.4,0,104.6,0,157.3,0c0,70.4,0,140.8,0,211.8c-52.1,0-104.3,0-157,0c0-4.6,0-9.2,0-14.7C224.9,310.5,272.1,310.5,319.5,310.5z"
		/>
	<path d="M224.1,250.8c15.5,9.1,11.5,32.3-0.8,37.5c-2,0.8-4,1.6-6.1,2c-2.3,0.5-4.6,0.6-6.9,0.6c-10.8,0.1-21.6,0-32.7,0
		c0-25.9,0-51.8,0-77.4c13.4,0,26.7-0.8,39.8,0.3c7.6,0.6,13.1,6.2,14.9,14.3C234.4,238.3,232.3,244.4,224.1,250.8z M192.9,277.6
		c6.2,0,12.1,0.4,18-0.1c4.6-0.4,8-4.6,8.2-8.7c0.3-5-2.2-9.5-7-10c-6.3-0.7-12.7-0.2-19.2-0.2C192.9,265,192.9,271.1,192.9,277.6z
		 M192.7,244.3c6.3,0,11.8,0.4,17.2-0.1c5-0.5,8-4.2,8.1-8.5c0.1-4.6-2.6-8.4-7.6-8.9c-5.8-0.6-11.7-0.1-17.7-0.1
		C192.7,232.5,192.7,238.3,192.7,244.3z"/>
</g>
<g id="Text">
	<path d="M155.2,353.4c0.9,0,1.7,0.2,2.4,0.5c0.7,0.3,1.3,0.8,1.8,1.3c0.5,0.6,0.9,1.2,1.2,1.9c0.3,0.7,0.4,1.4,0.4,2.1
		c0,0.7-0.1,1.3-0.3,1.8c-0.2,0.5-0.4,0.9-0.7,1.3c-0.3,0.4-0.6,0.8-0.9,1.1c0.2,0.1,0.5,0.3,0.8,0.5c0.4,0.3,0.8,0.6,1.1,1.1
		c0.4,0.5,0.7,1,1,1.7c0.3,0.7,0.4,1.5,0.4,2.4c0,1.1-0.2,2.1-0.6,2.9c-0.4,0.8-0.9,1.5-1.6,2.1s-1.4,1-2.1,1.2
		c-0.8,0.3-1.6,0.4-2.3,0.4h-6.8v-22.4H155.2z M152.2,356.4v5.8h3.2c0.2,0,0.5-0.1,0.8-0.2c0.3-0.1,0.6-0.3,0.9-0.6s0.5-0.6,0.7-0.9
		s0.3-0.8,0.3-1.3c0-0.4-0.1-0.7-0.2-1.1c-0.1-0.3-0.3-0.6-0.6-0.9c-0.2-0.3-0.5-0.5-0.9-0.6s-0.7-0.2-1.2-0.2H152.2z M155.9,372.7
		c0.5,0,1-0.1,1.5-0.3c0.4-0.2,0.8-0.5,1.1-0.8c0.3-0.4,0.5-0.7,0.7-1.2c0.2-0.4,0.3-0.9,0.3-1.3c0-0.5-0.1-1-0.3-1.5
		c-0.2-0.5-0.5-0.9-0.8-1.2c-0.3-0.4-0.7-0.6-1.2-0.8c-0.4-0.2-0.9-0.3-1.3-0.3h-3.6v7.5H155.9z"/>
	<path d="M180.5,375.9c-1.6,0-3.1-0.3-4.5-0.9c-1.4-0.6-2.6-1.4-3.6-2.4c-1-1-1.8-2.2-2.4-3.6s-0.8-2.8-0.8-4.4
		c0-1.6,0.3-3.1,0.8-4.5s1.4-2.6,2.4-3.6c1-1,2.2-1.8,3.6-2.4s2.9-0.9,4.5-0.9c1.5,0,3,0.3,4.4,0.9c1.4,0.6,2.6,1.4,3.6,2.4
		c1,1,1.8,2.2,2.4,3.6c0.6,1.4,0.9,2.9,0.9,4.5c0,1.5-0.3,3-0.9,4.4c-0.6,1.4-1.4,2.6-2.4,3.6c-1,1-2.2,1.8-3.6,2.4
		C183.5,375.6,182,375.9,180.5,375.9z M180.5,356.4c-1.2,0-2.2,0.2-3.2,0.6c-1,0.4-1.9,1-2.6,1.7c-0.7,0.7-1.3,1.6-1.7,2.6
		s-0.6,2.1-0.6,3.3c0,1.1,0.2,2.1,0.6,3.1s1,1.9,1.7,2.6c0.7,0.8,1.6,1.4,2.6,1.8c1,0.4,2.1,0.7,3.2,0.7c1.1,0,2.1-0.2,3.1-0.7
		c1-0.4,1.9-1,2.6-1.8c0.7-0.8,1.3-1.6,1.8-2.6c0.4-1,0.7-2,0.7-3.1c0-1.2-0.2-2.3-0.7-3.3c-0.4-1-1.1-1.9-1.8-2.6
		c-0.8-0.7-1.6-1.3-2.6-1.7C182.6,356.6,181.6,356.4,180.5,356.4z"/>
	<path d="M218.3,375.8h-3.4l-1.9-4.3h-10l-1.9,4.3h-3.4l0.6-1.4c0.3-0.7,0.6-1.4,0.9-2.1c0.3-0.7,0.6-1.4,0.9-2.1
		c1.3-3,2.6-6.1,4-9.2c1.4-3.2,2.7-6.3,4-9.3L218.3,375.8z M211.7,368.3c-0.3-0.7-0.5-1.3-0.8-2c-0.3-0.6-0.5-1.2-0.8-1.9
		c-0.4-0.9-0.7-1.6-1-2.4c-0.3-0.7-0.7-1.6-1-2.5l-0.7,1.6c-0.2,0.4-0.3,0.8-0.5,1.2s-0.3,0.8-0.5,1.1c-0.4,0.8-0.7,1.6-1.1,2.4
		c-0.3,0.8-0.7,1.6-1,2.4H211.7z"/>
	<path d="M237.5,375.8l-6.1-9.5h-3.1v9.5h-2.9v-22.4h6.1c0.8,0,1.6,0.2,2.4,0.5c0.8,0.3,1.5,0.7,2.1,1.3c0.6,0.6,1.1,1.2,1.5,2
		c0.4,0.8,0.6,1.7,0.6,2.7c0,1.2-0.3,2.3-0.9,3.3c-0.6,1-1.4,1.8-2.5,2.3l6.7,10.2H237.5z M231.6,363.2c0.5,0,1-0.1,1.4-0.3
		c0.4-0.2,0.7-0.5,1-0.8c0.3-0.3,0.5-0.7,0.6-1.1c0.1-0.4,0.2-0.8,0.2-1.1c0-0.6-0.1-1.1-0.4-1.6c-0.2-0.4-0.5-0.8-0.8-1.1
		c-0.3-0.3-0.7-0.5-1.1-0.6c-0.4-0.1-0.7-0.2-0.9-0.2h-3.3v6.7H231.6z"/>
	<path d="M253.7,353.4c0.7,0,1.5,0.1,2.4,0.2c0.9,0.1,1.8,0.3,2.6,0.6c0.9,0.3,1.7,0.7,2.6,1.2c0.8,0.5,1.6,1.2,2.2,2
		c0.7,0.8,1.2,1.9,1.6,3.1c0.4,1.2,0.6,2.6,0.6,4.3c0,1.7-0.2,3.2-0.7,4.4c-0.5,1.2-1.1,2.3-1.9,3.1c-0.8,0.8-1.6,1.5-2.5,1.9
		c-0.9,0.5-1.9,0.8-2.8,1.1c-0.9,0.2-1.8,0.4-2.6,0.4c-0.8,0.1-1.4,0.1-1.9,0.1h-6.1v-22.4H253.7z M253.4,372.8
		c1.4,0,2.6-0.2,3.7-0.6c1.1-0.4,2.1-0.9,2.8-1.6c0.8-0.7,1.4-1.6,1.8-2.5s0.6-2.1,0.6-3.3c0-2.6-0.8-4.7-2.3-6.2
		c-1.5-1.5-3.6-2.2-6.4-2.2h-3.3v16.4H253.4z"/>
	<path d="M301.7,353.4l-9.9,23.5l-4.6-10.6c-0.2,0.5-0.5,1-0.7,1.5c-0.2,0.5-0.5,1-0.7,1.5l-1.8,4.1l-1.5,3.4l-9.9-23.5h3.4
		l6.6,15.2c0.1-0.3,0.3-0.6,0.4-0.9s0.3-0.7,0.4-1l0.5-1.3l0.2-0.3l1.3-2.9c-0.2-0.5-0.4-1-0.6-1.5c-0.2-0.5-0.4-1-0.6-1.5
		c-0.2-0.3-0.3-0.7-0.4-1c-0.1-0.4-0.3-0.7-0.4-1.1l-1.5-3.6h3.5l1.9,4.6l1.9-4.6h3.4l-3.6,8.8c0.3,0.6,0.6,1.2,0.8,1.8
		c0.3,0.6,0.5,1.2,0.8,1.8c0.2,0.5,0.4,1,0.6,1.4c0.2,0.4,0.4,0.9,0.7,1.4c0.6-1.3,1.1-2.5,1.6-3.8c0.5-1.2,1.1-2.5,1.6-3.8l3.3-7.6
		H301.7z"/>
	<path d="M328.5,375.8h-3.4l-1.9-4.3h-10l-1.9,4.3h-3.4l0.6-1.4c0.3-0.7,0.6-1.4,0.9-2.1c0.3-0.7,0.6-1.4,0.9-2.1
		c1.3-3,2.6-6.1,4-9.2c1.4-3.2,2.7-6.3,4-9.3L328.5,375.8z M321.9,368.3c-0.3-0.7-0.5-1.3-0.8-2c-0.3-0.6-0.5-1.2-0.8-1.9
		c-0.4-0.9-0.7-1.6-1-2.4c-0.3-0.7-0.7-1.6-1-2.5l-0.7,1.6c-0.2,0.4-0.3,0.8-0.5,1.2s-0.3,0.8-0.5,1.1c-0.4,0.8-0.7,1.6-1.1,2.4
		c-0.3,0.8-0.7,1.6-1,2.4H321.9z"/>
	<path d="M349.4,372.7v3.1h-13.7v-22.4h3.1v19.3H349.4z"/>
	<path d="M357.7,353.4h3.1v22.4h-3.1V353.4z M376.4,375.8h-4.2l-12.1-11.5l10.3-10.9h4.2L364.3,364L376.4,375.8z"/>
	<path d="M166.7,380.4v22.4h-2v-22.4H166.7z"/>
	<path d="M192.9,403.3L178,384.8v18h-1.8v-23.1l14.9,18.3v-17.6h1.7V403.3z"/>
	<path d="M208.8,403c-1.1,0-2.1-0.1-3.2-0.4s-1.9-0.6-2.6-0.9c-0.4-0.2-0.7-0.3-1-0.5c-0.3-0.1-0.6-0.3-0.8-0.4h0
		c0,0-0.1-0.1-0.1-0.1c0,0-0.1,0-0.1-0.1l0.9-1.6l0.9,0.6c0.7,0.4,1.6,0.7,2.7,1c1,0.3,2.1,0.5,3.3,0.5c1.7,0,3-0.4,3.9-1.1
		c0.8-0.8,1.2-1.8,1.2-3.1c0-1.1-0.6-2.1-1.8-3c-0.4-0.3-0.9-0.6-1.4-0.9c-0.5-0.2-1-0.5-1.6-0.7l-0.7-0.4v0l-0.4-0.2
		c-0.7-0.3-1.5-0.6-2.2-1c-0.7-0.4-1.4-0.8-2-1.3c-0.7-0.6-1.3-1.2-1.6-1.9c-0.3-0.7-0.5-1.4-0.5-2.2c0-0.7,0.2-1.5,0.5-2.2
		c0.1-0.3,0.3-0.6,0.6-0.8c0.2-0.3,0.5-0.5,0.8-0.8c0.3-0.2,0.6-0.4,1-0.6c0.4-0.2,0.8-0.3,1.2-0.5c0.4-0.1,0.9-0.3,1.3-0.4
		c0.4-0.1,0.9-0.1,1.3-0.1c1,0,1.9,0.1,2.8,0.3c0.9,0.2,1.6,0.4,2.2,0.6l0.7,0.3l-0.4,0.9l-0.4,0.8c-0.6-0.2-1.4-0.4-2.2-0.6
		c-0.8-0.2-1.7-0.3-2.7-0.3c-0.4,0-0.8,0-1.4,0.1c-0.6,0.1-1.2,0.3-1.8,0.6c-1,0.6-1.6,1.6-1.6,2.8c0,0.5,0.1,0.9,0.4,1.3
		s0.7,0.8,1.1,1.1c0.5,0.3,1,0.7,1.6,0.9c0.6,0.3,1.3,0.6,1.9,0.8c0.9,0.4,1.7,0.8,2.7,1.2c0.9,0.4,1.7,0.9,2.4,1.4
		c1.6,1.3,2.4,2.8,2.4,4.5c0,0.9-0.2,1.8-0.6,2.5c-0.4,0.8-1,1.4-1.8,1.9c-0.6,0.5-1.4,0.8-2.2,1.1C210.7,402.8,209.7,403,208.8,403
		z M214.1,381.3L214.1,381.3c0.1,0,0.1,0,0.1,0c0,0,0.1,0,0.1,0l-0.1-0.2L214.1,381.3z"/>
	<path d="M239.7,380.4v14.5c0,1.1-0.2,2.1-0.6,3.1c-0.4,1-0.9,1.8-1.6,2.6c-0.7,0.7-1.5,1.3-2.5,1.7c-0.9,0.4-2,0.6-3.1,0.6
		s-2.1-0.2-3.1-0.6c-0.9-0.4-1.8-1-2.5-1.7c-0.7-0.7-1.3-1.6-1.7-2.6s-0.6-2-0.6-3.1v-14.5h2v14.5c0,0.9,0.2,1.8,0.5,2.6
		c0.3,0.8,0.7,1.5,1.3,2c0.5,0.6,1.2,1,1.9,1.3c0.7,0.3,1.5,0.5,2.3,0.5c0.8,0,1.5-0.2,2.3-0.5s1.3-0.8,1.9-1.3c0.5-0.6,1-1.3,1.3-2
		c0.3-0.8,0.5-1.6,0.5-2.6v-14.5H239.7z"/>
	<path d="M260.8,402.8l-6.5-10h-4.4v10h-1.8v-22.4h5.8c0.8,0,1.6,0.1,2.3,0.4s1.4,0.7,2,1.2c0.6,0.5,1.1,1.2,1.4,2
		c0.4,0.8,0.5,1.6,0.5,2.6c0,1.2-0.4,2.3-1.1,3.3c-0.7,1-1.6,1.8-2.8,2.3c0.6,0.9,1.1,1.8,1.7,2.7c0.6,0.9,1.2,1.8,1.8,2.7l3.2,5
		H260.8z M254.1,390.8c0.6,0,1.2-0.1,1.7-0.4c0.5-0.3,0.9-0.6,1.3-1s0.6-0.8,0.8-1.3c0.2-0.5,0.3-1,0.3-1.4c0-0.8-0.1-1.5-0.4-2
		c-0.3-0.5-0.6-1-1.1-1.3c-0.4-0.3-0.9-0.6-1.3-0.7c-0.5-0.1-0.9-0.2-1.2-0.2h-4.1v8.4H254.1z"/>
	<path d="M289.1,402.8h-2l-2-4.6h-11.6l-2,4.6h-2c0.2-0.5,0.4-0.9,0.5-1.3c0.2-0.4,0.4-0.8,0.5-1.2l1.1-2.4l7.6-18.1L289.1,402.8z
		 M284.2,396.2l-4.9-11.7c-0.2,0.4-0.4,0.9-0.6,1.4c-0.2,0.5-0.4,1-0.6,1.5c-0.2,0.5-0.4,1-0.6,1.5c-0.2,0.5-0.4,0.9-0.6,1.3
		c-0.2,0.4-0.4,0.9-0.6,1.4c-0.2,0.5-0.4,1-0.7,1.6c-0.2,0.5-0.4,1.1-0.7,1.6c-0.2,0.5-0.4,1-0.6,1.5H284.2z"/>
	<path d="M314,403.3l-14.9-18.5v18h-1.8v-23.1l14.9,18.3v-17.6h1.7V403.3z"/>
	<path d="M333.6,400.8c1.1,0,2.2-0.2,3.2-0.5c1-0.3,2-0.9,3-1.8l1.3,1.3c-1.2,1.1-2.4,1.8-3.6,2.3c-1.3,0.5-2.6,0.7-3.9,0.7
		c-1.5,0-3-0.3-4.3-0.9c-1.3-0.6-2.5-1.4-3.5-2.4c-1-1-1.8-2.2-2.4-3.6c-0.6-1.4-0.9-2.9-0.9-4.5c0-1.5,0.3-3,0.9-4.3
		c0.6-1.4,1.4-2.5,2.4-3.5c1-1,2.2-1.8,3.5-2.4c1.3-0.6,2.8-0.9,4.3-0.9c1.3,0,2.6,0.2,3.9,0.7c1.2,0.4,2.4,1.2,3.6,2.1l-1.2,1.3
		c-1-0.7-2-1.2-3-1.6c-1.1-0.4-2.1-0.5-3.2-0.5c-1.3,0-2.6,0.2-3.7,0.7c-1.1,0.5-2.1,1.1-3,2c-0.8,0.8-1.5,1.8-2,2.9
		c-0.5,1.1-0.7,2.3-0.7,3.6c0,1.3,0.2,2.6,0.7,3.7c0.5,1.2,1.1,2.1,2,3c0.8,0.8,1.8,1.5,3,2C331,400.6,332.2,400.8,333.6,400.8z"/>
	<path d="M351.5,382.3v8.2h7.9v1.7h-7.9v8.6h9.5v2h-11.5v-22.4H361v2H351.5z"/>
</g>
</svg>
