<svg id="Layer_1" data-name="Layer 1" xmlns="http://www.w3.org/2000/svg" viewBox="0 0 64.36 122.88"><defs><style>.cls-1{fill-rule:evenodd;}</style></defs><title>women-toilet</title><path class="cls-1" d="M19.71,40.39,7.24,92H19.71v25.13a5.73,5.73,0,0,0,5.72,5.72h0a5.73,5.73,0,0,0,5.71-5.72V92H33.4v25.13a5.73,5.73,0,0,0,5.71,5.72h0a5.73,5.73,0,0,0,5.72-5.72V92H56.6L44.83,41.73v-2.8h1.85l.13,0,8.82,31.38a4.45,4.45,0,0,0,8.56-2.4l-8.94-31.8a4.29,4.29,0,0,0-.19-.54c-1.13-4.72-1.64-7.54-4.49-9.68-5.3-4-30.91-4-36.2,0-3.08,2.32-4.2,5.87-5.54,10.88l.08,0L.17,67.88a4.44,4.44,0,1,0,8.55,2.4l8.83-31.39.16,0h2v1.46ZM32.2,0A10.34,10.34,0,1,1,21.86,10.34,10.34,10.34,0,0,1,32.2,0Z"/></svg>